# xmcd
#
# Track frame offsets:
#	150
#	15731
#	32357
#	51067
#	65491
#	80842
#	94388
#	108284
#	121541
#	136272
#	149346
#	165783
#
# Disc length: 2383 seconds
#
# Revision: 1
# Processed by: cddbd v1.5.1PL0 Copyright (c) Steve Scherf et al.
# Submitted via: EasyCDDAExtractor 6.2.0.3
#
DISCID=92094d0c
DTITLE=Kevin Robinson - Makin'em Like They Used To
DYEAR=2003
DGENRE=Country
TTITLE0=Don't Be Angry
TTITLE1=It's Not You It's Me
TTITLE2=Honky Tonk Angel
TTITLE3=Makin'em Like They Used To
TTITLE4=A Dream Worth Chasin'
TTITLE5=This Time I'm in Love
TTITLE6=The Facts Still Remain
TTITLE7=Love You Right Out of This
TTITLE8=What I Do The Best
TTITLE9=What I Never Knew
TTITLE10=I'm No Good at Leavin'
TTITLE11=Sweet Talk and Dreams
EXTD=
EXTT0=
EXTT1=
EXTT2=
EXTT3=
EXTT4=
EXTT5=
EXTT6=
EXTT7=
EXTT8=
EXTT9=
EXTT10=
EXTT11=
PLAYORDER=
